<?xml version="1.0" standalone="no"?>
<!DOCTYPE svg PUBLIC "-//W3C//DTD SVG 20010904//EN"
 "http://www.w3.org/TR/2001/REC-SVG-20010904/DTD/svg10.dtd">
<svg version="1.0" xmlns="http://www.w3.org/2000/svg"
 width="42.000000pt" height="42.000000pt" viewBox="0 0 42.000000 42.000000"
 preserveAspectRatio="xMidYMid meet">

<g transform="translate(0.000000,42.000000) scale(0.100000,-0.100000)"
fill="#000000" stroke="none">
<path d="M39 381 l-29 -29 0 -142 0 -142 29 -29 29 -29 142 0 142 0 29 29 29
29 0 142 0 142 -29 29 -29 29 -142 0 -142 0 -29 -29z m100 -128 c10 -17 12
-17 25 0 15 20 36 23 36 5 0 -7 -7 -21 -15 -32 -12 -16 -12 -22 2 -42 19 -29
10 -43 -17 -26 -16 10 -24 10 -40 0 -26 -17 -35 -4 -17 23 14 19 14 25 1 50
-18 35 -18 39 1 39 7 0 19 -8 24 -17z m159 5 c7 -7 12 -18 12 -25 0 -16 -27
-17 -32 -1 -7 21 -38 0 -38 -26 0 -25 25 -43 35 -26 10 16 35 12 35 -5 0 -26
-49 -38 -76 -20 -23 15 -28 29 -24 70 3 39 61 60 88 33z"/>
</g>
</svg>
